{"title":"Two And A Half Men Dva ipo muskarca serijal 4","uid":7114874,"size":4352373045,"categoryP":"video","categoryS":"tv_shows","magnet":"?xt=urn:btih:3d76ddf46265cc0f4acb2535782cd705cc33e7af&amp;dn=Two+And+A+Half+Men+Dva+ipo+muskarca+serijal+4&amp;tr=udp%3A%2F%2Ftracker.openbittorrent.com%3A80&amp;tr=udp%3A%2F%2Fopen.demonii.com%3A1337&amp;tr=udp%3A%2F%2Ftracker.coppersurfer.tk%3A6969&amp;tr=udp%3A%2F%2Fexodus.desync.com%3A6969","seeders":0,"leechers":1,"uploader":"homerruma","files":-1,"time":1332187246,"description":"Two And A Half Men Dva ipo muskarca serijal 4\n\nDVDrip\n\nUKLJUCUJE SRPSKI PREVOD\n\n\nGeneral\nComplete name                    : Two.And.A.Half.Men.S04E01.DVDRip.XviD-ORPHEUS.avi\nFormat                           : AVI\nFormat/Info                      : Audio Video Interleave\nFile size                        : 174 MiB\nDuration                         : 22mn 4s\nOverall bit rate                 : 1 104 Kbps\nWriting application              : VirtualDubMod 1.5.10.2 (build 2540/release)\nWriting library                  : VirtualDubMod build 2540/release\n\nVideo\nID                               : 0\nFormat                           : MPEG-4 Visual\nFormat profile                   : Advanced Simple@L5\nFormat settings, BVOP            : Yes\nFormat settings, QPel            : No\nFormat settings, GMC             : No warppoints\nFormat settings, Matrix          : Default (H.263)\nMuxing mode                      : Packed bitstream\nCodec ID                         : XVID\nCodec ID/Hint                    : XviD\nDuration                         : 22mn 4s\nBit rate                         : 959 Kbps\nWidth                            : 624 pixels\nHeight                           : 352 pixels\nDisplay aspect ratio             : 16:9\nFrame rate                       : 23.976 fps\nColor space                      : YUV\nChroma subsampling               : 4:2:0\nBit depth                        : 8 bits\nScan type                        : Progressive\nCompression mode                 : Lossy\nBits/(Pixel*Frame)               : 0.182\nStream size                      : 151 MiB (87%)\nWriting library                  : XviD 1.1.2 (UTC 2006-11-01)\n\nAudio\nID                               : 1\nFormat                           : MPEG Audio\nFormat version                   : Version 1\nFormat profile                   : Layer 3\nMode                             : Joint stereo\nMode extension                   : MS Stereo\nCodec ID                         : 55\nCodec ID/Hint                    : MP3\nDuration                         : 22mn 4s\nBit rate mode                    : Variable\nBit rate                         : 132 Kbps\nChannel(s)                       : 2 channels\nSampling rate                    : 48.0 KHz\nCompression mode                 : Lossy\nStream size                      : 20.8 MiB (12%)\nAlignment                        : Aligned on interleaves\nInterleave, duration             : 24 ms (0.58 video frame)\nInterleave, preload duration     : 122 ms\n","torrent":{"xt":"urn:btih:3d76ddf46265cc0f4acb2535782cd705cc33e7af","amp;dn":"Two+And+A+Half+Men+Dva+ipo+muskarca+serijal+4","amp;tr":["udp%3A%2F%2Ftracker.openbittorrent.com%3A80","udp%3A%2F%2Fopen.demonii.com%3A1337","udp%3A%2F%2Ftracker.coppersurfer.tk%3A6969","udp%3A%2F%2Fexodus.desync.com%3A6969"],"infoHash":"3d76ddf46265cc0f4acb2535782cd705cc33e7af","infoHashBuffer":{"type":"Buffer","data":[61,118,221,244,98,101,204,15,74,203,37,53,120,44,215,5,204,51,231,175]},"announce":[],"urlList":[]}}